<svg width="456" height="37" viewBox="0 0 456 37" fill="none" xmlns="http://www.w3.org/2000/svg">
<g clip-path="url(#clip0)">
<path d="M135.309 27.1858H132.527V2.95996H135.309V27.1858Z" fill="#BF0000"/>
<path d="M141.153 9.32881C142.62 8.01881 144.529 7.306 146.5 7.33173C150.672 7.33173 153.518 10.4983 153.518 15.1132V27.1856H150.736V15.0502C150.736 11.8836 148.929 9.87756 146.102 9.87756C144.775 9.93416 143.52 10.4905 142.589 11.4341C141.659 12.3776 141.123 13.638 141.089 14.9602V27.1496H138.308V7.79051H140.782L141.153 9.32881Z" fill="#BF0000"/>
<path d="M166.162 11.8206C165.688 11.2376 165.091 10.765 164.414 10.4355C163.737 10.1061 162.996 9.92795 162.243 9.91345C160.319 9.91345 159.027 10.993 159.027 12.6122C158.992 13.0443 159.073 13.478 159.262 13.8686C159.451 14.2591 159.741 14.5925 160.102 14.8342C160.481 15.1041 160.481 15.1041 163.715 16.4894C167.481 18.1537 168.962 19.8179 168.962 22.3727C168.962 25.6023 166.37 27.6713 162.261 27.6713C160.94 27.7337 159.624 27.4776 158.424 26.9247C157.224 26.3719 156.176 25.5386 155.369 24.4958L157.311 22.7416C157.903 23.4874 158.661 24.0867 159.524 24.4924C160.387 24.8982 161.333 25.0995 162.288 25.0805C164.582 25.0805 166 24.064 166 22.3817C165.959 21.839 165.792 21.3131 165.513 20.8449C165.234 20.3768 164.851 19.9792 164.392 19.683C163.127 18.8678 161.769 18.2064 160.346 17.7129C157.311 16.4445 156.047 14.9062 156.047 12.4503C156.047 9.33773 158.521 7.27767 162.233 7.27767C163.338 7.23718 164.438 7.43303 165.46 7.85202C166.483 8.27101 167.403 8.9034 168.158 9.70655L166.162 11.8206Z" fill="#BF0000"/>
<path d="M176.016 3.54395V7.78998H180.902V10.3808H176.016V23.2449C176.016 24.4413 176.702 25.0441 177.994 25.0441C178.491 25.0705 178.983 24.9427 179.404 24.6785C179.824 24.4142 180.152 24.0265 180.342 23.5687L182.447 25.0171C181.056 26.9872 179.855 27.6349 177.723 27.6349C175.592 27.6349 174.228 26.7983 173.577 25.0441C173.308 24.2514 173.191 23.415 173.234 22.5792V10.3808H169.901V7.78998H173.234V3.54395H176.016Z" fill="#BF0000"/>
<path d="M184.308 5.38807V2.18555H187.523V5.38807H184.308ZM184.524 27.1851V7.78997H187.306V27.1851H184.524Z" fill="#BF0000"/>
<path d="M195.742 3.54395V7.78998H200.619V10.3808H195.742V23.2449C195.742 24.4413 196.419 25.0441 197.72 25.0441C198.216 25.0691 198.708 24.9408 199.129 24.6768C199.549 24.4127 199.877 24.0257 200.068 23.5687L202.164 25.0171C200.773 26.9872 199.571 27.6349 197.44 27.6349C195.308 27.6349 193.944 26.7983 193.294 25.0441C193.028 24.2507 192.915 23.4144 192.96 22.5792V10.3808H189.618V7.78998H192.96V3.54395H195.742Z" fill="#BF0000"/>
<path d="M215.73 25.242C215.065 26.0019 214.243 26.6099 213.32 27.0244C212.397 27.4389 211.396 27.6502 210.383 27.6439C206.238 27.6439 203.393 24.4774 203.393 19.8535V7.79004H206.174V19.8895C206.174 23.056 207.981 25.0621 210.808 25.0621C212.132 24.9993 213.385 24.4409 214.314 23.4987C215.243 22.5564 215.781 21.2997 215.821 19.9794V7.79004H218.603V27.1851H216.128L215.73 25.242Z" fill="#BF0000"/>
<path d="M226.803 3.54395V7.78998H231.662V10.3808H226.785V23.2449C226.785 24.4413 227.462 25.0441 228.763 25.0441C229.259 25.0691 229.751 24.9408 230.172 24.6768C230.592 24.4127 230.92 24.0257 231.111 23.5687L233.207 25.0171C231.816 26.9872 230.614 27.6349 228.483 27.6349C226.351 27.6349 224.987 26.7983 224.337 25.0441C224.071 24.2507 223.958 23.4144 224.003 22.5792V10.3808H220.661V7.78998H224.003V3.54395H226.803Z" fill="#BF0000"/>
<path d="M250.268 23.6414C249.436 24.9253 248.282 25.9702 246.919 26.6725C245.557 27.3747 244.034 27.7098 242.501 27.6445C237.208 27.6445 233.469 23.4255 233.469 17.4252C233.469 11.425 236.991 7.2959 242.094 7.2959C246.818 7.2959 250.53 11.416 250.53 16.6786C250.531 17.185 250.489 17.6906 250.404 18.1899H236.422C236.429 20.0693 237.133 21.8797 238.4 23.2726C238.91 23.8467 239.533 24.3095 240.231 24.6315C240.929 24.9536 241.687 25.128 242.456 25.1437C243.594 25.1864 244.72 24.902 245.7 24.3246C246.68 23.7472 247.473 22.901 247.983 21.8872L250.268 23.6414ZM247.333 15.734C247.089 12.1357 244.985 9.82373 242.112 9.82373C241.165 9.82785 240.236 10.0792 239.416 10.5527C238.597 11.0263 237.916 11.7054 237.443 12.5225C236.872 13.5003 236.535 14.5963 236.458 15.725L247.333 15.734Z" fill="#BF0000"/>
<path d="M274.483 17.4884C274.483 23.5516 270.988 27.6807 265.83 27.6807C260.673 27.6807 257.178 23.5516 257.178 17.4884C257.178 11.4252 260.7 7.33203 265.857 7.33203C271.015 7.33203 274.483 11.4521 274.483 17.4884ZM260.14 17.4884C260.14 21.8874 262.552 25.0899 265.83 25.0899C269.109 25.0899 271.512 21.8874 271.512 17.5154C271.512 13.1434 269.136 9.91384 265.794 9.91384C262.452 9.91384 260.14 13.1164 260.14 17.4884Z" fill="#BF0000"/>
<path d="M277.987 6.09892C277.987 2.68049 279.685 0.989258 283.118 0.989258H284.662V3.57108H283.027C282.72 3.52554 282.407 3.5523 282.112 3.64921C281.817 3.74613 281.549 3.91051 281.33 4.12916C281.11 4.34781 280.945 4.61466 280.848 4.9083C280.75 5.20194 280.724 5.5142 280.769 5.82005V7.79013H284.951V10.3809H280.778V27.1852H277.996V10.3809H275.188V7.79013H277.996L277.987 6.09892Z" fill="#BF0000"/>
<path d="M301.842 5.42483V27.1858H299.06V5.42483H292.114V2.95996H308.796V5.42483H301.842Z" fill="#BF0000"/>
<path d="M324.223 23.6415C323.391 24.9383 322.231 25.9941 320.859 26.7031C319.488 27.4121 317.954 27.7492 316.41 27.6807C311.117 27.6807 307.378 23.4616 307.378 17.4614C307.378 11.4611 310.9 7.33203 315.994 7.33203C320.727 7.33203 324.439 11.4521 324.439 16.7147C324.44 17.2211 324.398 17.7267 324.313 18.226H310.377C310.383 20.1054 311.088 21.9158 312.355 23.3087C312.864 23.8829 313.487 24.3456 314.185 24.6677C314.883 24.9897 315.641 25.1641 316.41 25.1798C317.548 25.2225 318.674 24.9382 319.654 24.3607C320.634 23.7833 321.427 22.9372 321.938 21.9233L324.223 23.6415ZM321.287 15.7342C321.043 12.1358 318.939 9.82389 316.067 9.82389C315.12 9.82801 314.19 10.0794 313.371 10.5529C312.551 11.0264 311.871 11.7056 311.397 12.5227C310.826 13.5005 310.489 14.5964 310.413 15.7252L321.287 15.7342Z" fill="#BF0000"/>
<path d="M339.27 12.3516C338.826 11.6018 338.194 10.9802 337.435 10.548C336.677 10.1158 335.818 9.88788 334.944 9.88671C331.701 9.88671 329.29 13.0892 329.29 17.4612C329.29 21.8332 331.701 25.0627 334.944 25.0627C335.85 25.0538 336.737 24.8039 337.514 24.3389C338.29 23.8739 338.928 23.2107 339.361 22.418L341.555 24.3881C340.805 25.4288 339.81 26.2705 338.657 26.8398C337.505 27.409 336.23 27.6884 334.944 27.6535C329.814 27.6535 326.318 23.4974 326.318 17.4612C326.318 11.425 329.841 7.3049 334.944 7.3049C336.224 7.25854 337.496 7.52932 338.645 8.09297C339.794 8.65662 340.785 9.4955 341.528 10.5344L339.27 12.3516Z" fill="#BF0000"/>
<path d="M346.532 9.73355C347.221 8.98328 348.057 8.3827 348.99 7.96941C349.922 7.55611 350.93 7.33899 351.951 7.33165C356.097 7.33165 358.942 10.4982 358.942 15.1131V27.1855H356.16V15.0501C356.16 11.8836 354.354 9.87749 351.527 9.87749C350.2 9.93408 348.944 10.4904 348.014 11.434C347.083 12.3776 346.547 13.6379 346.514 14.9601V27.1495H343.75V1.3584H346.532V9.73355Z" fill="#BF0000"/>
<path d="M364.804 9.32881C366.271 8.01881 368.18 7.306 370.151 7.33173C374.323 7.33173 377.168 10.4983 377.168 15.1132V27.1856H374.368V15.0502C374.368 11.8836 372.562 9.87756 369.726 9.87756C368.401 9.93638 367.147 10.4937 366.219 11.437C365.29 12.3804 364.755 13.6395 364.722 14.9602V27.1496H361.94V7.79051H364.433L364.804 9.32881Z" fill="#BF0000"/>
<path d="M396.434 17.4884C396.434 23.5516 392.948 27.6807 387.782 27.6807C382.615 27.6807 379.129 23.5516 379.129 17.4884C379.129 11.4252 382.651 7.33203 387.818 7.33203C392.984 7.33203 396.434 11.4521 396.434 17.4884ZM382.1 17.4884C382.1 21.8874 384.512 25.0899 387.782 25.0899C391.051 25.0899 393.472 21.8874 393.472 17.5154C393.472 13.1434 391.087 9.91384 387.754 9.91384C384.422 9.91384 382.1 13.1164 382.1 17.4884Z" fill="#BF0000"/>
<path d="M398.521 27.1855V1.3584H401.302V27.1855H398.521Z" fill="#BF0000"/>
<path d="M420.685 17.4884C420.685 23.5516 417.19 27.6807 412.033 27.6807C406.875 27.6807 403.38 23.5516 403.38 17.4884C403.38 11.4252 406.902 7.33203 412.06 7.33203C417.217 7.33203 420.685 11.4521 420.685 17.4884ZM406.342 17.4884C406.342 21.8874 408.754 25.0899 412.033 25.0899C415.311 25.0899 417.723 21.8874 417.723 17.5154C417.723 13.1434 415.338 9.91384 412.005 9.91384C408.673 9.91384 406.342 13.1164 406.342 17.4884Z" fill="#BF0000"/>
<path d="M438.099 23.2093C438.099 29.1196 435.254 32.3851 430.123 32.3851C428.796 32.4128 427.48 32.1388 426.275 31.5839C425.07 31.029 424.007 30.2077 423.169 29.1825L425.02 27.3834C425.613 28.1179 426.354 28.7195 427.196 29.1489C428.038 29.5783 428.962 29.8258 429.907 29.8752C433.52 29.8752 435.037 27.5093 435.163 21.8419C434.555 22.7113 433.731 23.4092 432.772 23.8679C431.813 24.3266 430.751 24.5305 429.69 24.4597C425.364 24.4597 422.302 21.0143 422.302 16.1475C422.302 10.9749 425.49 7.28658 429.907 7.28658C430.867 7.24552 431.825 7.40522 432.72 7.75538C433.614 8.10554 434.425 8.6384 435.1 9.31966L435.651 7.74538H438.099V23.2093ZM425.21 16.0756C425.21 19.5839 427.251 22.0398 430.187 22.0398C433.122 22.0398 435.227 19.6109 435.227 16.0756C435.227 12.5402 433.032 9.77844 430.151 9.77844C427.269 9.77844 425.21 12.3513 425.21 16.0756Z" fill="#BF0000"/>
<path d="M456 7.79004L449.018 28.8764C448.771 29.8814 448.19 30.7742 447.371 31.4107C446.552 32.0472 445.541 32.3903 444.502 32.3848C443.208 32.394 441.963 31.8964 441.034 30.9994L442.334 29.0023C442.594 29.2597 442.903 29.4631 443.243 29.6005C443.582 29.738 443.946 29.8068 444.312 29.8029C445.396 29.8029 445.92 29.3351 446.444 27.8958L446.878 26.7174L440.14 7.82603H443.012L448.178 22.8761L453.055 7.82603L456 7.79004Z" fill="#BF0000"/>
<path d="M100.5 31.0088H24.9648L30.9892 37L100.5 31.0088Z" fill="#BF0000"/>
<path d="M31.964 6.77427V7.67386C30.6844 6.76675 29.1541 6.27652 27.5835 6.27051C22.2907 6.27051 18.2715 11.0743 18.2715 16.9756C18.2715 22.8769 22.2907 27.6897 27.5835 27.6897C29.155 27.6804 30.6852 27.1871 31.964 26.2773V27.1769H36.6155V6.77427H31.964ZM27.5835 22.7689C24.9732 22.7689 23.0675 20.2141 23.0675 16.9756C23.0675 13.7371 24.9732 11.1912 27.5835 11.1912C30.1938 11.1912 32.0363 13.7461 32.0363 16.9756C32.0363 20.2051 30.1938 22.7689 27.5835 22.7689Z" fill="#BF0000"/>
<path d="M69.2306 6.77344V18.7649C69.2824 19.2945 69.2224 19.829 69.0544 20.3342C68.8865 20.8393 68.6143 21.3038 68.2553 21.6979C67.8963 22.092 67.4585 22.4069 66.9701 22.6224C66.4816 22.8379 65.9533 22.9492 65.4191 22.9492C64.8848 22.9492 64.3565 22.8379 63.868 22.6224C63.3796 22.4069 62.9418 22.092 62.5828 21.6979C62.2239 21.3038 61.9516 20.8393 61.7837 20.3342C61.6157 19.829 61.5557 19.2945 61.6075 18.7649V6.77344H56.9561V18.7649C56.9561 23.6857 60.334 27.6888 65.2745 27.6888C66.6904 27.6664 68.0675 27.2248 69.2306 26.4204V27.1851H73.8821V6.77344H69.2306Z" fill="#BF0000"/>
<path d="M112.566 27.1859V15.1944C112.514 14.6648 112.574 14.1303 112.742 13.6252C112.91 13.1201 113.183 12.6555 113.542 12.2615C113.901 11.8674 114.338 11.5525 114.827 11.337C115.315 11.1215 115.844 11.0101 116.378 11.0101C116.912 11.0101 117.44 11.1215 117.929 11.337C118.417 11.5525 118.855 11.8674 119.214 12.2615C119.573 12.6555 119.845 13.1201 120.013 13.6252C120.181 14.1303 120.241 14.6648 120.189 15.1944V27.1859H124.841V15.1944C124.841 10.2737 121.463 6.27051 116.522 6.27051C115.108 6.29195 113.731 6.73018 112.566 7.52992V6.77427H107.924V27.1859H112.566Z" fill="#BF0000"/>
<path d="M4.86703 27.1859V19.2785H8.30824L14.2603 27.1859H20.3118L13.0862 17.6413C14.614 16.5624 15.7576 15.0272 16.3514 13.258C16.9452 11.4888 16.9584 9.57729 16.3891 7.80012C15.8198 6.02294 14.6976 4.47227 13.1847 3.37249C11.6719 2.27271 9.84698 1.68087 7.97405 1.68262H-0.0644531V27.1859H4.86703ZM4.86703 6.49542H8.03728C8.5745 6.46989 9.11133 6.55322 9.61526 6.74039C10.1192 6.92757 10.5797 7.21467 10.969 7.58432C11.3583 7.95397 11.6681 8.39846 11.8799 8.89089C12.0916 9.38331 12.2008 9.91341 12.2008 10.4491C12.2008 10.9848 12.0916 11.5149 11.8799 12.0073C11.6681 12.4997 11.3583 12.9442 10.969 13.3139C10.5797 13.6835 10.1192 13.9706 9.61526 14.1578C9.11133 14.345 8.5745 14.4283 8.03728 14.4028H4.86703V6.49542Z" fill="#BF0000"/>
<path d="M86.4183 22.3551C85.9589 22.6733 85.4151 22.8487 84.8557 22.8589C84.5437 22.8457 84.2376 22.7693 83.9563 22.6341C83.675 22.499 83.4244 22.3082 83.2197 22.0732C83.0151 21.8382 82.8608 21.5641 82.7662 21.2676C82.6717 20.9711 82.639 20.6586 82.67 20.349V11.614H86.6441V6.77428H82.6338V1.68262H77.9824V6.77428H75.5166V11.614H77.9824V20.448C77.9399 21.3817 78.0866 22.3144 78.4137 23.1905C78.7409 24.0665 79.2417 24.868 79.8865 25.5472C80.5313 26.2263 81.3068 26.7692 82.1667 27.1435C83.0267 27.5177 83.9534 27.7157 84.8918 27.7256C86.4803 27.6797 88.0323 27.2407 89.4079 26.4482L86.4183 22.3551Z" fill="#BF0000"/>
<path d="M48.1771 16.3455L56.1614 6.77389H49.6403L44.0585 13.8806V0H39.2715V27.1855H44.0585V18.8014L50.9228 27.1855H57.4349L48.1771 16.3455Z" fill="#BF0000"/>
<path d="M97.1577 6.25195C91.7385 6.25195 87.918 10.9658 87.918 16.975C87.918 23.2721 92.7591 27.7071 97.6184 27.7071C100.075 27.7071 103.218 26.8615 105.865 23.1372L101.755 20.7713C98.5758 25.4401 93.283 23.0652 92.6688 18.4054H106.063C107.21 11.0737 102.45 6.25195 97.1577 6.25195ZM101.222 14.3482H92.8404C93.8249 9.56243 100.319 9.28357 101.222 14.3392V14.3482Z" fill="#BF0000"/>
</g>
<defs>
<clipPath id="clip0">
<rect width="456" height="37" fill="white"/>
</clipPath>
</defs>
</svg>
