<?xml version="1.0" encoding="UTF-8" standalone="no"?>
<!DOCTYPE svg PUBLIC "-//W3C//DTD SVG 1.1//EN" "http://www.w3.org/Graphics/SVG/1.1/DTD/svg11.dtd">
<svg width="100%" height="100%" viewBox="0 0 858 326" version="1.1" xmlns="http://www.w3.org/2000/svg" xmlns:xlink="http://www.w3.org/1999/xlink" xml:space="preserve" xmlns:serif="http://www.serif.com/" style="fill-rule:evenodd;clip-rule:evenodd;stroke-miterlimit:3.864;">
    <g transform="matrix(4.166667,0,0,4.166667,-88.017438,-163.192024)">
        <path id="path30" d="M74.5,113.9C73.6,113.5 72.1,113.1 70.5,112.7C70.6,113.6 70.7,114.4 70.8,115.1C72.1,114.7 73.3,114.3 74.5,113.9ZM70.5,111.9C72.5,112.4 74.6,113 75.4,113.5C76.1,113.2 76.8,112.9 77.5,112.6C76.3,111.9 73.3,111 70.6,110.2C70.5,110.8 70.5,111.4 70.5,111.9ZM75.6,114.3C75.5,114.3 75.5,114.3 75.6,114.3C73.3,115.2 71.1,115.8 68.9,116.3L68.8,116.3C66.8,116.7 64.8,117 62.8,117.1L62.7,117.1C56.1,117.5 49.9,116.2 45.2,114.1L45,114C45,114 44.9,114 44.9,113.9C37,110.2 33.4,103.7 41.2,98.5C40.4,97.2 39.4,95.9 38.3,94.6C38,94.2 37.6,93.7 37.3,93.3C36.7,94.9 36.6,96 37.6,97.4C37.7,97.6 37.7,97.7 37.6,97.9L32.1,104.5C32,104.7 31.7,104.7 31.6,104.5C4,74.2 35.5,28.3 73.5,41.5C73.7,41.6 73.8,41.8 73.7,42L67.7,51.9C67.6,52 67.5,52.1 67.3,52.1C65.4,51.8 64.3,51.9 63.5,52.6C65.2,52.9 67,53.3 68.8,54C70.4,52.2 72.2,50.5 74,49C74,49 74.1,49 74.1,48.9C74.2,48.8 74.3,48.8 74.4,48.9C74.5,48.9 74.6,49 74.6,49.1L74.6,49.2L78,59.4L78,59.7C78,59.8 77.9,59.9 77.8,59.9C77.7,60 77.6,60 77.5,60.1C78.2,62.2 83.1,77 84.6,81C85.1,82.2 86.1,84.5 86.1,85.8C86.1,87.1 85.2,87.8 83.3,87.9C82.3,88.8 82.2,89.2 82.7,89.8C83.7,91.2 83.2,91.8 82,92.7C83.1,93.6 82.9,95.2 82.3,95.2C81.5,95.2 81.2,95.5 80.7,96.1C84.2,99.5 81.3,102.5 76.6,103.5C75.1,103.8 73.4,104 71.6,103.9L71.6,104C71,106 70.6,107.9 70.5,109.6C73.6,110.5 77.3,111.6 78.3,112.4L78.4,112.5C78.5,112.6 78.5,112.7 78.5,112.8C78.5,112.9 78.4,113 78.3,113C78.3,113 78.2,113 78.2,113.1C77.4,113.5 76.5,113.9 75.6,114.3ZM42.9,100.7L42.9,100.8C43.1,101.7 43.2,102.6 43.2,103.6C45.4,102.1 44.8,99.6 44.2,98.4C43.6,98.8 43.1,99.1 42.5,99.5C42.6,99.9 42.7,100.3 42.9,100.7ZM42.3,101.4C40.7,102.4 40,103.5 39.9,104.7C40.9,104.6 41.8,104.3 42.4,104C42.5,103.1 42.4,102.2 42.3,101.4ZM39.8,105.4C39.8,105.9 40,106.3 40.2,106.8C45.2,106.7 48.9,101.8 46.2,96.9C45.7,97.3 45.2,97.7 44.7,98C45.7,99.9 46.6,104.7 39.8,105.4ZM40.7,107.5C41.1,108.1 41.6,108.6 42.2,109.1C49.5,107 51,100.9 48.1,95.4C47.7,95.8 47.3,96.1 46.8,96.5C49.9,101.8 45.9,107.1 40.7,107.5ZM42.9,109.6C43.6,110 44.4,110.4 45.2,110.7C54.2,106.2 52,96.9 50,93.7C49.6,94.1 49.1,94.5 48.7,94.9C51.7,100.7 50.3,107.2 42.9,109.6ZM70.9,73.2C74,72 77.9,71.4 80.9,72.3C79.6,68.3 78.2,64.2 77.4,61.8C77.4,65.8 75.5,69.6 71.6,71.2C71.4,71.9 71.2,72.6 70.9,73.2ZM69.8,73.8C69.8,73.8 69.8,73.7 69.9,73.7C70.4,72.9 70.8,72 71,71L71,70.9C71.2,70.1 71.2,69.2 71.2,68.3L71.2,68.2C71.2,67.6 71.1,66.9 70.9,66.2C70.4,66.7 70,67.2 69.6,67.8C69.8,70.1 69.3,72.6 66.8,74.8C66.9,75.5 66.9,76.2 66.8,76.9C68.1,75.9 69.1,74.9 69.8,73.8ZM51.4,95C51.6,94.2 52,93.6 52.6,93C52.3,92.5 52.2,91.9 52.1,91.4C51.6,92 51.1,92.5 50.5,93.1C50.8,93.7 51.1,94.3 51.4,95ZM53.1,92.6C53.5,92.3 54,92.1 54.5,91.9C54.2,91.2 54,90.3 53.9,89.3C53.5,89.8 53,90.3 52.6,90.8C52.7,91.4 52.9,92 53.1,92.6ZM36.1,95.3C36.1,94.5 36.4,93.6 36.8,92.6C35,90 33.4,86.6 32.9,81.6L32.9,81.5C32.9,81 32.8,80.5 32.8,80L32.8,79.4C32.7,77.8 32.8,76.1 33.1,74.5L33.1,74.4C33.2,73.9 33.3,73.4 33.4,72.9L33.4,72.8C34.5,68.2 36.8,63.8 40.1,60.2L40.2,60.1C41.2,59.1 42.3,58.1 43.4,57.2C45.2,55.8 47.2,54.7 49.4,53.9L49.5,53.9C52.2,52.9 55.2,52.3 58.4,52.3L59,52.3C60.2,52.3 61.4,52.4 62.7,52.6C63.3,51.9 63.9,51.5 64.8,51.4C64.7,51.4 64.7,51.4 64.6,51.3C63,50.9 61.5,50.6 59.9,50.5C51.7,50 43.7,53.6 38.3,59.6C37.2,60.8 36.2,62.1 35.3,63.5L35.3,63.6C34.5,64.9 33.8,66.3 33.2,67.7C32.6,69.1 32.1,70.6 31.8,72.1C30.4,78 30.9,84.5 34.1,91.1C34.4,92.5 35.2,93.9 36.1,95.3ZM37.4,92.3L37.5,92.4C37.8,92.8 38,93.1 38.3,93.5C39.7,92.4 41,91.3 42.3,90.1C41.7,89.8 41.1,89.5 40.6,89.2C39.6,90.2 39,90.6 37.3,90.6C37,90.6 36.9,90.4 37,90.1C37.3,89.2 37,86.9 37,85.7C36.9,85.5 36.7,85.2 36.6,85C36.2,85.1 35.6,85.1 34.9,85.1C34.5,85.1 34.4,84.8 34.7,84.5C35.8,83.5 35.6,82.1 35.9,80.2C35.3,80.5 34.1,81.3 33.7,81.6C34.1,86.5 35.7,89.8 37.4,92.3ZM40.9,96.9C55.5,87.1 61.3,69.4 74.4,58.2L72.5,57.8C72.1,57.7 72.1,57.7 72.2,57.3L72.5,54.6C60.3,66.9 53.6,87.1 40,95.7C40.3,96.1 40.6,96.5 40.9,96.9ZM74.8,52.3C74.2,52.8 73.7,53.3 73.2,53.8L72.8,57.2L75,57.7C75.4,57.4 75.8,57 76.3,56.7L76,55.7C75.4,55.9 74.7,55.6 74.4,54.9C74.2,54.3 74.5,53.6 75.2,53.3L74.8,52.3ZM43.1,90.3C41.7,91.6 40.3,92.9 38.7,94.1L38.8,94.2C39,94.5 39.3,94.8 39.5,95.1C46.7,90.6 51.9,82.8 57.1,74.6C61.6,67.4 66.4,59.4 72.5,53.4L72.6,53.3C73.2,52.7 73.9,52.1 74.5,51.5L74,50C71.6,52 69.5,54.2 67.4,56.6C67.4,56.6 67.4,56.7 67.3,56.7C63.4,61.4 60.1,66.7 57,71.6C55.3,74.2 53.7,76.8 51.9,79.4C51.9,79.4 51.9,79.5 51.8,79.5C51.1,80.5 50.3,81.5 49.6,82.6C49.6,82.6 49.6,82.7 49.5,82.7C49,83.4 48.4,84.1 47.8,84.8C47.8,84.8 47.8,84.9 47.7,84.9C46.9,85.9 46,86.9 45.1,87.9C45.1,87.9 45.1,88 45,88C44.6,88.7 43.8,89.5 43.1,90.3ZM42.8,89.6C43.3,89.1 43.9,88.5 44.4,88C41.1,87.5 39.2,85.9 38.5,83.9C38,84.3 37.7,84.6 37.3,84.8C37.4,85 37.5,85.2 37.6,85.4C37.6,85.4 37.7,85.5 37.7,85.6C39,87.7 40.5,88.4 42.8,89.6ZM44.9,87.3C45.4,86.7 46,86.1 46.5,85.5C40.4,87.2 36.5,77.6 47,73.7C46.2,73.4 45.5,73.2 44.8,72.8C38,75.8 35.7,86.1 44.9,87.3ZM47.5,84.3C48,83.6 48.6,83 49.1,82.3C49.3,80.5 48.9,78.5 46.6,77.5C46,77.8 45.4,78.2 44.9,78.7C48.2,79.2 48.1,83.4 45.1,83.4C42.6,83.4 42.7,80.3 43.8,78.8C43.8,78.8 43.8,78.7 43.9,78.7C44.4,78 45.2,77.4 46.3,76.8C46.3,76.8 46.4,76.8 46.4,76.7C47.2,76.3 48.2,76 49.3,75.7L49.4,75.7C50.1,75.5 50.8,75.4 51.7,75.3C51.1,75 50.3,74.8 49.6,74.5C49.1,74.3 48.6,74.2 48,74C36.9,77.6 41.4,87.5 47.5,84.3ZM49.8,81.2C50.3,80.5 50.8,79.8 51.3,79.1C51.2,78.4 50.4,77.1 49.5,76.4C48.8,76.6 48.1,76.8 47.4,77.1C49.2,78.1 49.8,79.7 49.8,81.2ZM51.8,78.4C52.3,77.6 52.8,76.9 53.3,76.1C53.2,76 53,75.9 52.9,75.8C52.2,75.9 51.3,76 50.3,76.2C51,76.9 51.5,77.7 51.8,78.4ZM53.7,75.6C54.2,74.8 54.7,74 55.3,73.2C53.3,72.7 49.8,73 47.5,73C48.3,73.3 49.1,73.5 49.9,73.8C51.1,74.2 52.2,74.6 53.2,75.2C53.2,75.2 53.3,75.2 53.3,75.3C53.4,75.4 53.6,75.5 53.7,75.6ZM55.7,72.5C56.1,71.9 56.4,71.3 56.8,70.8C54.6,70.1 51.1,70.3 48.9,70.3C46.3,70.3 43.5,70.4 41.4,69.8C42.5,70.8 43.9,71.6 45.4,72.2C46.5,72.4 49.2,72.2 50.1,72.2C52.1,72.2 54.3,72.2 55.7,72.5ZM57.2,70.2C57.5,69.7 57.8,69.2 58.1,68.7C55.3,67.6 50.8,68 47.9,68C44.6,68 41.2,67.8 39,66C39.3,67.1 39.8,68 40.4,68.8C43.6,70.2 49.8,69.5 53.5,69.6C54.9,69.7 56.2,69.8 57.2,70.2ZM58.5,68.1C58.8,67.6 59.1,67.1 59.5,66.6C58.4,66.2 57.3,66 56.2,65.8L56.1,65.8C53.3,65.4 50.5,65.5 47.5,65.5C45.6,65.5 43.9,65.4 42.3,65L42.2,65C40.9,64.6 39.8,63.9 38.9,62.6C38.8,62.7 38.7,62.8 38.6,63C38.6,63.6 38.7,64.1 38.8,64.7C40.6,67.1 44.1,67.4 48,67.4C51,67.3 55.6,66.9 58.5,68.1ZM67.2,55.9C67.5,55.5 67.9,55.1 68.2,54.7C66.3,54.1 64.5,53.6 62.7,53.4L62.6,53.4C61.8,53.3 61,53.2 60.2,53.1C60.5,53.5 60.7,54.2 60.7,55C61.1,55.4 61.4,55.9 61.4,56.4C61.9,56.1 62.6,56 63.4,56.2C64,54.8 66,54.5 67.2,55.9ZM27.6,98.4L34.1,93.5C33.8,92.9 33.5,92.4 33.2,91.8L27.7,95.1C27.3,95.3 26.9,94.7 27.3,94.5L32.8,91.1C32.6,90.6 32.4,90.2 32.2,89.7L24.7,93.2C25.6,95 26.6,96.7 27.6,98.4ZM34.5,94.1L28,99C29.1,100.6 30.3,102.2 31.7,103.8L36.8,97.7C36.5,97.2 36.1,96.8 35.8,96.3L30.9,101.1C30.6,101.4 30.1,100.9 30.4,100.6L35.4,95.7C35.1,95.2 34.8,94.6 34.5,94.1ZM24.6,92.6L32.1,89.1C31.9,88.6 31.7,88.1 31.6,87.6L25.5,89.4C25,89.5 24.8,88.8 25.3,88.7L31.4,86.9C31.2,86.2 31,85.6 30.9,84.9L22.8,86.6C23.1,88.7 23.8,90.6 24.6,92.6ZM22.5,86L30.6,84.3C30.5,83.7 30.4,83.1 30.3,82.6L23.8,83.2C23.3,83.2 23.3,82.5 23.7,82.5L30.2,81.9C30.1,81.3 30.1,80.6 30,80L21.7,79.8C21.8,81.8 22.1,83.9 22.5,86ZM21.7,79L30,79.2L30,77.5L23.6,76.8C23.1,76.7 23.2,76 23.7,76.1L30.1,76.8C30.1,76.1 30.2,75.4 30.3,74.7L22.2,73C21.9,75 21.7,77 21.7,79ZM22.3,72.3L30.4,74C30.5,73.4 30.6,72.9 30.7,72.4L24.5,70.4C24,70.3 24.3,69.6 24.7,69.7L30.8,71.6C30.9,71.1 31.1,70.5 31.2,70L23.7,66.3C23.2,68.2 22.6,70.2 22.3,72.3ZM24.1,65.6L31.5,69.3C31.7,68.8 31.9,68.2 32.1,67.7L26.4,64.2C26,64 26.4,63.3 26.8,63.6L32.4,67C32.6,66.4 32.9,65.9 33.2,65.3L26.5,60.2C25.6,62 24.8,63.8 24.1,65.6ZM26.8,59.7L33.5,64.8C33.7,64.4 34,63.9 34.3,63.5L29.4,58.8C29.1,58.5 29.6,58 29.9,58.3L34.7,62.9C35.1,62.3 35.4,61.8 35.8,61.3L30.2,54.8C29,56.3 27.8,57.9 26.8,59.7ZM30.6,54.2L36.2,60.7C36.6,60.3 36.9,59.8 37.3,59.4L33.1,53.7C32.8,53.3 33.4,52.9 33.7,53.3L37.8,58.9C38.2,58.5 38.6,58 39.1,57.6L34.7,50C33.2,51.2 31.9,52.6 30.6,54.2ZM35.2,49.4L39.6,57C40,56.7 40.4,56.3 40.8,56L37.9,49.3C37.7,48.9 38.4,48.6 38.6,49L41.4,55.5C41.9,55.1 42.4,54.7 43,54.4L40.1,45.7C38.4,46.9 36.7,48.1 35.2,49.4ZM40.7,45.4L43.6,54.1C44.1,53.8 44.5,53.5 45,53.3L43.3,46C43.2,45.5 43.9,45.4 44,45.8L45.7,52.8C46.2,52.5 46.7,52.3 47.2,52L45.9,42.6C44.1,43.5 42.4,44.4 40.7,45.4ZM46.6,42.4L47.9,51.8C48.4,51.6 49,51.4 49.6,51.2L49.3,43.4C49.3,42.9 50,42.9 50,43.4L50.2,51C50.7,50.8 51.3,50.7 51.9,50.5L52.6,40.7C50.5,41.1 48.5,41.7 46.6,42.4ZM53.3,40.6L52.6,50.4C53.2,50.3 53.9,50.1 54.5,50.1L55.7,42.4C55.8,41.9 56.5,42 56.4,42.5L55.3,50C55.8,49.9 56.3,49.9 56.8,49.9L59.3,40.1C57.3,40 55.3,40.2 53.3,40.6ZM60.1,40L57.6,49.8L59.5,49.8L61.9,42.1C62,41.6 62.7,41.9 62.6,42.3L60.2,49.8C60.8,49.9 61.4,49.9 62,50L66.1,40.4C64.1,40.1 62.1,40 60.1,40ZM66.8,40.6L62.7,50.2C63.2,50.3 63.8,50.4 64.3,50.6L68.3,42.8C68.5,42.4 69.2,42.7 68.9,43.1L64.9,50.7C65.6,50.9 66.3,51.1 67,51.4L72.6,42.1C70.7,41.4 68.8,40.9 66.8,40.6ZM53.9,62.1C53.9,62.2 53.9,62.2 53.8,62.3C53.8,62.4 53.7,62.4 53.6,62.4L53.5,62.4C52.9,62.5 52.3,62.5 51.7,62.4C51.6,62.5 51.6,62.5 51.5,62.6C51.6,63.3 51.9,64.1 52.7,64.9C53.2,64.9 53.8,64.9 54.3,65L55.9,58.5C54.1,58 53.7,54.9 56,54.5C56,54 56.2,53.5 56.5,53.2C55.3,53.3 54.1,53.4 52.9,53.7L53.2,57.4L53.2,57.9C53.2,58.4 52.5,58.4 52.5,58L52.5,57.7L51,56.7C50.6,57 50.4,57.5 50.4,58C50.4,59 51.2,59.8 52.2,59.8C52.4,59.8 52.5,59.8 52.7,59.7L52.7,59.6C52.7,59.1 53.4,59.1 53.4,59.5L53.4,60L53.9,62.1C53.9,62 53.9,62.1 53.9,62.1ZM51.3,55.5L51.5,55.6L51.6,55.6L52.8,56.4L52.5,53.5C51.6,53.7 50.7,54 49.8,54.3C47.9,56.3 48.2,58.5 49.3,59.9L49.4,60C50.3,61.1 51.8,61.7 53.2,61.5L53,60.2C52.8,60.2 52.6,60.3 52.4,60.3C51,60.3 49.9,59.2 49.9,57.8C49.9,57.1 50.2,56.5 50.7,56C50.6,55.7 50.9,55.3 51.3,55.5ZM50.9,62.1C50.1,61.8 49.4,61.3 48.9,60.8C46.4,61.4 44.2,59.6 43.4,58C42.5,58.7 41.7,59.4 41,60.1L42.5,60.5L42.6,60.5L43,60.6C43.1,60.6 43.1,60.6 43.2,60.7C43.3,60.7 43.3,60.8 43.3,60.8C45,62.9 49.3,62.9 50.9,62.1ZM48.4,60.1C47.4,58.7 47.2,56.9 48.4,55C46.8,55.7 45.3,56.6 44,57.6C44.6,58.9 46.4,60.4 48.4,60.1ZM42.7,61.3C42.4,62 42.4,63.5 42.6,64.3C44,64.7 45.6,64.8 47.4,64.8L51.8,64.8C51.3,64.2 51,63.5 50.9,62.9C48.8,63.7 44.6,63.4 42.7,61.3ZM43.9,72.4C43.4,72.2 43,71.9 42.6,71.6C42.1,72 41.6,72.4 41.1,72.7L41,72.7C40.1,73.5 39.3,74.2 38.7,74.9L38.6,75C38.3,75.3 38.1,75.6 37.9,76C37.9,76 37.9,76.1 37.8,76.1C37,77.4 36.6,78.5 36.4,79.6C36.1,81.1 36.3,83.1 35.4,84.4C36.8,84.3 37.2,83.9 38,83.1C37.4,79.3 40.1,74.4 43.9,72.4ZM44.4,79.3C44.3,79.4 44.2,79.6 44.1,79.7C43.3,81.3 44.2,82.6 45.1,82.6C47.4,82.6 47.2,79.5 44.4,79.3ZM40.3,72.5C39.1,71.5 37.7,70.5 37,69C36.9,69.8 36.9,70.6 37.1,71.3C37.4,72.5 38,73.5 38.5,74.2C39,73.7 39.6,73.1 40.3,72.5ZM37.7,86.9C37.8,87.9 37.9,88.9 37.7,89.9C38.8,89.8 39.3,89.5 39.9,88.9C39.1,88.3 38.4,87.7 37.7,86.9ZM37.3,73.6L36,74.3L36.7,75.8C37,75.7 37.2,75.6 37.5,75.5C37.7,75.3 37.9,75 38.1,74.7C37.8,74.4 37.6,74 37.3,73.6ZM33.4,80C33.4,80.3 33.4,80.6 33.5,80.9C34.2,80.4 35.3,79.7 35.9,79.5C36.1,78.6 36.4,77.7 36.9,76.7C36.8,76.7 36.8,76.8 36.7,76.8C35.1,77.6 33.7,79.4 33.4,80ZM33.5,75.4C33.4,76.5 33.3,77.6 33.3,78.7C33.6,78.2 34.1,77.7 34.6,77.2L33.5,75.4ZM33.9,73.1C33.8,73.5 33.7,74 33.7,74.4L35.2,76.9C35.5,76.7 35.7,76.5 36,76.3C34.8,73.7 34.5,74.3 37,73.1C36.8,72.7 36.7,72.3 36.5,71.9C35.9,72 34.8,72.4 33.9,73.1ZM37.9,63.9C36.2,66.4 34.9,69.2 34.2,72.1C35,71.6 35.8,71.3 36.4,71.1C36.2,70 36.2,68.9 36.7,67.6C36.9,67.2 37.3,67.2 37.4,67.7C37.7,69.5 39.5,70.9 40.9,72C41.2,71.7 41.6,71.4 42,71.2C39.9,69.7 38.3,67.5 37.9,63.9ZM40.4,60.7C40,61.1 39.6,61.5 39.3,62C40,63 40.9,63.6 41.9,64.1C41.8,63.2 41.8,62 42,61.2L40.4,60.7ZM60.5,58.4C60.2,58.6 59.8,58.7 59.3,58.7C59.2,59.7 59,60.8 59.2,61.8L61.1,59.8C60.7,59.3 60.5,58.8 60.5,58.4ZM58.3,60.5C57.8,60.4 57.2,60.2 57,59.6C56.9,59.4 57.7,59.5 57.8,59.5C58,59.5 58.2,59.5 58.4,59.4C58.4,59 58.5,58.6 58.6,58.2C58.6,58.1 58.6,57.9 58.7,57.8C58.8,57.3 59.5,57.4 59.4,57.9C61.5,57.7 61.1,54.7 58.9,55.2C58.4,55.3 58.3,54.6 58.8,54.5C59.3,54.4 59.7,54.4 60.1,54.5C59.9,51.5 55.2,53.3 57.9,55.6C58.3,55.9 57.8,56.5 57.4,56.1C56.9,55.7 56.6,55.3 56.5,54.9C54.9,55.2 55.3,57.2 56.4,57.5L56.4,57.4C56.5,56.9 57.2,57.1 57.1,57.6L57,58L55.2,65C55.5,65 55.8,65.1 56.1,65.1L58.6,62.4C58.4,61.8 58.3,61.2 58.3,60.5ZM61.9,63C61.5,62.5 61.4,61.7 61.5,61C61.6,60.7 61.9,61.2 62,61.3C62.2,61.5 62.5,61.6 62.8,61.8C63.4,60.9 64,60.1 64.6,59.2C65.3,58.3 66,57.3 66.8,56.4C65.6,54.9 63.5,55.8 64.1,58.1C64.2,58.6 63.5,58.7 63.4,58.3C63.3,57.8 63.2,57.3 63.3,56.9C61.7,56.4 60.6,57.8 61.6,59.2C61.9,58.9 62.4,59.4 62.1,59.7L59.3,62.7L59.2,62.8L57,65.2C58,65.4 59,65.6 60,66C60.5,65 61.2,64 61.9,63ZM58.7,83C62.7,81.4 63.9,78.2 63.7,75.7C62.8,77 61.9,78.3 61.1,79.6C60.3,80.7 59.5,81.8 58.7,83ZM66.6,73.9C68.3,72.2 68.8,70.3 68.8,68.6C67.9,69.8 67,71 66.1,72.2C66.3,72.8 66.5,73.3 66.6,73.9ZM71.8,67.5C73.6,66 74.3,64.5 74.3,62.6C73.3,63.5 72.4,64.4 71.5,65.4C71.6,66.2 71.7,66.9 71.8,67.5ZM71.7,70.4C75.4,68.7 76.9,64.7 76.6,60.6C76,61 75.4,61.5 74.9,62C75.1,64.5 74.2,66.5 71.8,68.3C71.8,69.1 71.8,69.8 71.7,70.4ZM57.3,85.8C61.5,85.4 65.2,82.1 66,77.6L66,77.5C66.1,76.6 66.2,75.7 66.1,74.7L66.1,74.6C66,74 65.9,73.5 65.7,72.9C65.3,73.5 64.8,74.1 64.4,74.8C65,78 63.6,82.4 58.1,84C57.7,84.6 57.2,85.2 56.7,85.8L57.3,85.8ZM41.9,98.5C42,98.7 42.1,98.8 42.1,98.9C43.5,98.1 44.8,97.2 46.1,96.1L46.2,96.1C46.8,95.6 47.4,95.1 48,94.6L48.1,94.5C48.7,94 49.2,93.4 49.8,92.9C49.8,92.9 49.8,92.8 49.9,92.8C50.6,92.1 51.4,91.3 52.1,90.5L52.2,90.4C52.8,89.7 53.5,88.9 54.1,88.2C54.1,88.1 54.2,88.1 54.2,88.1C54.7,87.4 55.3,86.7 55.8,86C55.8,85.9 55.8,86 55.9,85.9C56.5,85.1 57.1,84.3 57.6,83.5C57.6,83.5 57.6,83.4 57.7,83.4C59.8,80.5 61.8,77.5 63.8,74.5C63.8,74.5 63.8,74.4 63.9,74.4C64.5,73.6 65,72.7 65.6,71.9C65.6,71.9 65.6,71.8 65.7,71.8C66.7,70.4 67.7,69.1 68.7,67.8C68.8,67.7 68.9,67.6 69,67.4C69,67.4 69,67.3 69.1,67.3C69.7,66.6 70.3,65.8 70.9,65.1C70.9,65.1 70.9,65 71,65C72.1,63.8 73.3,62.6 74.4,61.5L74.5,61.4C75.3,60.7 76,60.1 76.8,59.6L77,59.4L77.1,59.4C77.2,59.3 77.3,59.2 77.4,59.2L76.7,57.2C76.3,57.5 75.9,57.8 75.6,58.1L75.5,58.2C61.9,69.5 56.2,87.6 41.3,97.5C41.5,97.8 41.7,98.1 41.9,98.5ZM54.7,99.8C54.7,99.8 54.8,99.8 54.7,99.8C55.1,99.9 55.4,99.9 55.7,99.9C56.6,99.9 57.4,99.6 58.1,99.1C58.9,98.4 59.4,97.4 59.4,96.3C59.4,95.7 59.3,95.2 59.1,94.8L59.1,94.7C58.5,93.5 57.2,92.6 55.8,92.6L55.2,92.6C54.5,92.7 53.9,93 53.4,93.4L53.3,93.4C52.5,94.1 52,95.1 52,96.2C52,97.9 53.1,99.4 54.7,99.8ZM45.1,113.3C46.2,112.9 47.2,112.4 48,111.9L48.1,111.8C48.9,111.3 49.6,110.7 50.3,110.1C50.3,110.1 50.3,110 50.4,110C53.6,106.8 54.5,102.7 54.4,100.4C53.7,100.2 53,99.7 52.5,99.2C52.9,103.3 51.6,108.3 45.5,111.3C45.4,111.4 45.4,111.4 45.3,111.4L45.1,111.4C44.1,111.1 43,110.5 42.1,109.9C42,109.8 42,109.8 41.9,109.7C41.1,109.1 40.4,108.3 39.9,107.5C39.8,107.4 39.8,107.4 39.8,107.3C38.6,105.2 38.8,102.8 42.2,100.8C42,100.3 41.8,99.8 41.6,99.3C34.6,103.9 37.3,109.7 45.1,113.3ZM48.3,112.5C47.6,112.9 46.8,113.3 46,113.7C50.1,115.4 55.4,116.5 61,116.4C57.7,115.1 51.5,113.2 48.3,112.5ZM50.7,110.7C50.2,111.1 49.7,111.6 49.2,111.9C53.2,112.8 60.3,115.1 62.8,116.2C64.3,116.1 65.9,115.9 67.4,115.7C63.1,114.4 54.5,111.7 50.7,110.7ZM55,100.6C55,103 54.2,107 51.2,110.2C55.6,111.3 65.2,114.3 68.7,115.6C69.2,115.5 69.7,115.4 70.1,115.3C69.5,112.5 69.5,108.4 70.9,103.9C66.9,103.6 62.4,102.4 58.2,99.8C57.5,100.3 56.6,100.7 55.6,100.7C55.5,100.6 55.2,100.6 55,100.6ZM55,90.9C55.1,91.2 55.2,91.5 55.3,91.8L55.7,91.8C56.4,91.8 57.1,92 57.7,92.3C58.1,90.3 56.2,89.5 55,90.9ZM57.6,87.3C60.8,88.1 61.9,92.1 59.9,94.5C60.1,95 60.2,95.6 60.2,96.2C60.2,97.4 59.7,98.5 59,99.3C65.2,103.1 72.2,103.8 76.8,102.8C81.6,101.8 83.3,99.2 80.3,96.4C79.8,95.9 81.2,94.6 82.3,94.5C82.4,93.8 82.1,93.3 81.6,93C80.1,92.9 77.7,93.6 76.1,94C76,94.3 75.5,94.4 75.4,94C75.2,93.5 75.7,92.7 75.8,92.5C76,92 76.6,92.3 76.4,92.8C76.3,92.9 76.2,93.1 76.2,93.3C77.8,92.9 80,92.2 81.6,92.3C82,92 83,91.3 82.8,90.7C82.7,90.6 82.6,90.4 82.4,90.1C81.6,89.1 82,88.4 82.7,87.6C81.5,87.4 79.9,87.6 79.1,88.5C78.6,89 77.8,87.6 77.7,87.4C77.4,86.6 77.4,85.6 78.6,84.5C78.9,84.2 79.4,84.7 79.1,85C78.2,85.9 77.9,86.8 78.8,87.7C80.1,86.7 81.9,86.5 83.4,86.9C86.1,86.7 85.9,85.6 85.2,83.7C84.9,82.9 84.5,82 84.2,81C83.6,79.5 82.5,76.4 81.4,73C78.3,71.8 73.9,72.5 70.6,74C69.8,75.3 68.6,76.5 66.9,77.7C66.1,82.3 62.3,85.8 57.9,86.3L57.6,87.3ZM56.8,87.2L56.9,86.5L56.1,86.5C55.6,87.2 55.1,87.8 54.6,88.4C54.6,89 54.7,89.5 54.8,90C56.3,88.7 59.2,89.6 58.3,92.6C58.8,92.9 59.2,93.4 59.5,93.8C61.1,91.6 59.7,88 56.6,87.9C56.1,87.9 56.1,87.2 56.6,87.2L56.8,87.2ZM69.2,61.6C69.2,62 68.9,62.3 68.5,62.3C68.1,62.3 67.8,62 67.8,61.6C67.8,61.2 68.1,60.9 68.5,60.9C68.9,61 69.2,61.3 69.2,61.6ZM71.1,59.4C71.1,59.8 70.8,60.1 70.4,60.1C70,60.1 69.7,59.8 69.7,59.4C69.7,59 70,58.7 70.4,58.7C70.8,58.7 71.1,59 71.1,59.4ZM67.4,64C67.4,64.3 67.1,64.6 66.8,64.6C66.5,64.6 66.2,64.3 66.2,64C66.2,63.7 66.5,63.4 66.8,63.4C67.1,63.4 67.4,63.7 67.4,64ZM47,57.6C47,58 46.7,58.3 46.3,58.3C45.9,58.3 45.6,58 45.6,57.6C45.6,57.2 45.9,56.9 46.3,56.9C46.7,56.9 47,57.2 47,57.6ZM55.7,97.5C56.4,97.5 57,96.9 57,96.2C57,95.5 56.4,94.9 55.7,94.9C55,94.9 54.4,95.5 54.4,96.2C54.4,96.9 55,97.5 55.7,97.5ZM55.7,98.2C54.6,98.2 53.7,97.3 53.7,96.2C53.7,95.1 54.6,94.2 55.7,94.2C56.8,94.2 57.7,95.1 57.7,96.2C57.7,97.3 56.8,98.2 55.7,98.2ZM83.2,87.1L83.2,87.1ZM72.7,79.1C72.5,78.5 72.4,77.8 72.5,77C71.4,77.3 70.4,77.8 69.5,78.5C69.8,78.6 70.3,78.7 70.9,78.9C71.4,79 72,79.1 72.7,79.1ZM73.2,76.8C73.1,77.8 73.2,78.5 73.4,79.1C73.9,79.1 74.3,79.1 74.8,79C74.6,78.7 74.4,78.2 74.4,77.8C74.4,77.3 74.4,76.9 74.6,76.5C74.2,76.6 73.7,76.7 73.2,76.8ZM76.2,75.7C76.7,75.7 77.2,75.6 77.5,75.7C77.7,75.7 77.8,75.9 77.8,76.1C77.8,76.5 77.2,76.8 76.8,76.9C76.9,77.1 76.9,77.3 76.9,77.6C77,78.6 76.6,79.5 75.9,79.7L75.8,79.7C75,79.8 74.1,79.9 73.1,79.9L72.9,79.9C71.4,79.9 69.9,79.6 68.7,79.1C68.4,79.5 67.8,79 68.2,78.6C68.2,78.6 68.4,78.4 68.5,78.3C69.4,77.6 71.8,75.8 76.2,75.7Z" style="fill:rgb(29,29,27);fill-rule:nonzero;"/>
        <path id="path32" d="M74.5,113.9C73.6,113.5 72.1,113.1 70.5,112.7C70.6,113.6 70.7,114.4 70.8,115.1C72.1,114.7 73.3,114.3 74.5,113.9ZM70.5,111.9C72.5,112.4 74.6,113 75.4,113.5C76.1,113.2 76.8,112.9 77.5,112.6C76.3,111.9 73.3,111 70.6,110.2C70.5,110.8 70.5,111.4 70.5,111.9ZM75.6,114.3C75.5,114.3 75.5,114.3 75.6,114.3C73.3,115.2 71.1,115.8 68.9,116.3L68.8,116.3C66.8,116.7 64.8,117 62.8,117.1L62.7,117.1C56.1,117.5 49.9,116.2 45.2,114.1L45,114C45,114 44.9,114 44.9,113.9C37,110.2 33.4,103.7 41.2,98.5C40.4,97.2 39.4,95.9 38.3,94.6C38,94.2 37.6,93.7 37.3,93.3C36.7,94.9 36.6,96 37.6,97.4C37.7,97.6 37.7,97.7 37.6,97.9L32.1,104.5C32,104.7 31.7,104.7 31.6,104.5C4,74.2 35.5,28.3 73.5,41.5C73.7,41.6 73.8,41.8 73.7,42L67.7,51.9C67.6,52 67.5,52.1 67.3,52.1C65.4,51.8 64.3,51.9 63.5,52.6C65.2,52.9 67,53.3 68.8,54C70.4,52.2 72.2,50.5 74,49C74,49 74.1,49 74.1,48.9C74.2,48.8 74.3,48.8 74.4,48.9C74.5,48.9 74.6,49 74.6,49.1L74.6,49.2L78,59.4L78,59.7C78,59.8 77.9,59.9 77.8,59.9C77.7,60 77.6,60 77.5,60.1C78.2,62.2 83.1,77 84.6,81C85.1,82.2 86.1,84.5 86.1,85.8C86.1,87.1 85.2,87.8 83.3,87.9C82.3,88.8 82.2,89.2 82.7,89.8C83.7,91.2 83.2,91.8 82,92.7C83.1,93.6 82.9,95.2 82.3,95.2C81.5,95.2 81.2,95.5 80.7,96.1C84.2,99.5 81.3,102.5 76.6,103.5C75.1,103.8 73.4,104 71.6,103.9L71.6,104C71,106 70.6,107.9 70.5,109.6C73.6,110.5 77.3,111.6 78.3,112.4L78.4,112.5C78.5,112.6 78.5,112.7 78.5,112.8C78.5,112.9 78.4,113 78.3,113C78.3,113 78.2,113 78.2,113.1C77.4,113.5 76.5,113.9 75.6,114.3ZM42.9,100.7L42.9,100.8C43.1,101.7 43.2,102.6 43.2,103.6C45.4,102.1 44.8,99.6 44.2,98.4C43.6,98.8 43.1,99.1 42.5,99.5C42.6,99.9 42.7,100.3 42.9,100.7ZM42.3,101.4C40.7,102.4 40,103.5 39.9,104.7C40.9,104.6 41.8,104.3 42.4,104C42.5,103.1 42.4,102.2 42.3,101.4ZM39.8,105.4C39.8,105.9 40,106.3 40.2,106.8C45.2,106.7 48.9,101.8 46.2,96.9C45.7,97.3 45.2,97.7 44.7,98C45.7,99.9 46.6,104.7 39.8,105.4ZM40.7,107.5C41.1,108.1 41.6,108.6 42.2,109.1C49.5,107 51,100.9 48.1,95.4C47.7,95.8 47.3,96.1 46.8,96.5C49.9,101.8 45.9,107.1 40.7,107.5ZM42.9,109.6C43.6,110 44.4,110.4 45.2,110.7C54.2,106.2 52,96.9 50,93.7C49.6,94.1 49.1,94.5 48.7,94.9C51.7,100.7 50.3,107.2 42.9,109.6ZM70.9,73.2C74,72 77.9,71.4 80.9,72.3C79.6,68.3 78.2,64.2 77.4,61.8C77.4,65.8 75.5,69.6 71.6,71.2C71.4,71.9 71.2,72.6 70.9,73.2ZM69.8,73.8C69.8,73.8 69.8,73.7 69.9,73.7C70.4,72.9 70.8,72 71,71L71,70.9C71.2,70.1 71.2,69.2 71.2,68.3L71.2,68.2C71.2,67.6 71.1,66.9 70.9,66.2C70.4,66.7 70,67.2 69.6,67.8C69.8,70.1 69.3,72.6 66.8,74.8C66.9,75.5 66.9,76.2 66.8,76.9C68.1,75.9 69.1,74.9 69.8,73.8ZM51.4,95C51.6,94.2 52,93.6 52.6,93C52.3,92.5 52.2,91.9 52.1,91.4C51.6,92 51.1,92.5 50.5,93.1C50.8,93.7 51.1,94.3 51.4,95ZM53.1,92.6C53.5,92.3 54,92.1 54.5,91.9C54.2,91.2 54,90.3 53.9,89.3C53.5,89.8 53,90.3 52.6,90.8C52.7,91.4 52.9,92 53.1,92.6ZM36.1,95.3C36.1,94.5 36.4,93.6 36.8,92.6C35,90 33.4,86.6 32.9,81.6L32.9,81.5C32.9,81 32.8,80.5 32.8,80L32.8,79.4C32.7,77.8 32.8,76.1 33.1,74.5L33.1,74.4C33.2,73.9 33.3,73.4 33.4,72.9L33.4,72.8C34.5,68.2 36.8,63.8 40.1,60.2L40.2,60.1C41.2,59.1 42.3,58.1 43.4,57.2C45.2,55.8 47.2,54.7 49.4,53.9L49.5,53.9C52.2,52.9 55.2,52.3 58.4,52.3L59,52.3C60.2,52.3 61.4,52.4 62.7,52.6C63.3,51.9 63.9,51.5 64.8,51.4C64.7,51.4 64.7,51.4 64.6,51.3C63,50.9 61.5,50.6 59.9,50.5C51.7,50 43.7,53.6 38.3,59.6C37.2,60.8 36.2,62.1 35.3,63.5L35.3,63.6C34.5,64.9 33.8,66.3 33.2,67.7C32.6,69.1 32.1,70.6 31.8,72.1C30.4,78 30.9,84.5 34.1,91.1C34.4,92.5 35.2,93.9 36.1,95.3ZM37.4,92.3L37.5,92.4C37.8,92.8 38,93.1 38.3,93.5C39.7,92.4 41,91.3 42.3,90.1C41.7,89.8 41.1,89.5 40.6,89.2C39.6,90.2 39,90.6 37.3,90.6C37,90.6 36.9,90.4 37,90.1C37.3,89.2 37,86.9 37,85.7C36.9,85.5 36.7,85.2 36.6,85C36.2,85.1 35.6,85.1 34.9,85.1C34.5,85.1 34.4,84.8 34.7,84.5C35.8,83.5 35.6,82.1 35.9,80.2C35.3,80.5 34.1,81.3 33.7,81.6C34.1,86.5 35.7,89.8 37.4,92.3ZM40.9,96.9C55.5,87.1 61.3,69.4 74.4,58.2L72.5,57.8C72.1,57.7 72.1,57.7 72.2,57.3L72.5,54.6C60.3,66.9 53.6,87.1 40,95.7C40.3,96.1 40.6,96.5 40.9,96.9ZM74.8,52.3C74.2,52.8 73.7,53.3 73.2,53.8L72.8,57.2L75,57.7C75.4,57.4 75.8,57 76.3,56.7L76,55.7C75.4,55.9 74.7,55.6 74.4,54.9C74.2,54.3 74.5,53.6 75.2,53.3L74.8,52.3ZM43.1,90.3C41.7,91.6 40.3,92.9 38.7,94.1L38.8,94.2C39,94.5 39.3,94.8 39.5,95.1C46.7,90.6 51.9,82.8 57.1,74.6C61.6,67.4 66.4,59.4 72.5,53.4L72.6,53.3C73.2,52.7 73.9,52.1 74.5,51.5L74,50C71.6,52 69.5,54.2 67.4,56.6C67.4,56.6 67.4,56.7 67.3,56.7C63.4,61.4 60.1,66.7 57,71.6C55.3,74.2 53.7,76.8 51.9,79.4C51.9,79.4 51.9,79.5 51.8,79.5C51.1,80.5 50.3,81.5 49.6,82.6C49.6,82.6 49.6,82.7 49.5,82.7C49,83.4 48.4,84.1 47.8,84.8C47.8,84.8 47.8,84.9 47.7,84.9C46.9,85.9 46,86.9 45.1,87.9C45.1,87.9 45.1,88 45,88C44.6,88.7 43.8,89.5 43.1,90.3ZM42.8,89.6C43.3,89.1 43.9,88.5 44.4,88C41.1,87.5 39.2,85.9 38.5,83.9C38,84.3 37.7,84.6 37.3,84.8C37.4,85 37.5,85.2 37.6,85.4C37.6,85.4 37.7,85.5 37.7,85.6C39,87.7 40.5,88.4 42.8,89.6ZM44.9,87.3C45.4,86.7 46,86.1 46.5,85.5C40.4,87.2 36.5,77.6 47,73.7C46.2,73.4 45.5,73.2 44.8,72.8C38,75.8 35.7,86.1 44.9,87.3ZM47.5,84.3C48,83.6 48.6,83 49.1,82.3C49.3,80.5 48.9,78.5 46.6,77.5C46,77.8 45.4,78.2 44.9,78.7C48.2,79.2 48.1,83.4 45.1,83.4C42.6,83.4 42.7,80.3 43.8,78.8C43.8,78.8 43.8,78.7 43.9,78.7C44.4,78 45.2,77.4 46.3,76.8C46.3,76.8 46.4,76.8 46.4,76.7C47.2,76.3 48.2,76 49.3,75.7L49.4,75.7C50.1,75.5 50.8,75.4 51.7,75.3C51.1,75 50.3,74.8 49.6,74.5C49.1,74.3 48.6,74.2 48,74C36.9,77.6 41.4,87.5 47.5,84.3ZM49.8,81.2C50.3,80.5 50.8,79.8 51.3,79.1C51.2,78.4 50.4,77.1 49.5,76.4C48.8,76.6 48.1,76.8 47.4,77.1C49.2,78.1 49.8,79.7 49.8,81.2ZM51.8,78.4C52.3,77.6 52.8,76.9 53.3,76.1C53.2,76 53,75.9 52.9,75.8C52.2,75.9 51.3,76 50.3,76.2C51,76.9 51.5,77.7 51.8,78.4ZM53.7,75.6C54.2,74.8 54.7,74 55.3,73.2C53.3,72.7 49.8,73 47.5,73C48.3,73.3 49.1,73.5 49.9,73.8C51.1,74.2 52.2,74.6 53.2,75.2C53.2,75.2 53.3,75.2 53.3,75.3C53.4,75.4 53.6,75.5 53.7,75.6ZM55.7,72.5C56.1,71.9 56.4,71.3 56.8,70.8C54.6,70.1 51.1,70.3 48.9,70.3C46.3,70.3 43.5,70.4 41.4,69.8C42.5,70.8 43.9,71.6 45.4,72.2C46.5,72.4 49.2,72.2 50.1,72.2C52.1,72.2 54.3,72.2 55.7,72.5ZM57.2,70.2C57.5,69.7 57.8,69.2 58.1,68.7C55.3,67.6 50.8,68 47.9,68C44.6,68 41.2,67.8 39,66C39.3,67.1 39.8,68 40.4,68.8C43.6,70.2 49.8,69.5 53.5,69.6C54.9,69.7 56.2,69.8 57.2,70.2ZM58.5,68.1C58.8,67.6 59.1,67.1 59.5,66.6C58.4,66.2 57.3,66 56.2,65.8L56.1,65.8C53.3,65.4 50.5,65.5 47.5,65.5C45.6,65.5 43.9,65.4 42.3,65L42.2,65C40.9,64.6 39.8,63.9 38.9,62.6C38.8,62.7 38.7,62.8 38.6,63C38.6,63.6 38.7,64.1 38.8,64.7C40.6,67.1 44.1,67.4 48,67.4C51,67.3 55.6,66.9 58.5,68.1ZM67.2,55.9C67.5,55.5 67.9,55.1 68.2,54.7C66.3,54.1 64.5,53.6 62.7,53.4L62.6,53.4C61.8,53.3 61,53.2 60.2,53.1C60.5,53.5 60.7,54.2 60.7,55C61.1,55.4 61.4,55.9 61.4,56.4C61.9,56.1 62.6,56 63.4,56.2C64,54.8 66,54.5 67.2,55.9ZM27.6,98.4L34.1,93.5C33.8,92.9 33.5,92.4 33.2,91.8L27.7,95.1C27.3,95.3 26.9,94.7 27.3,94.5L32.8,91.1C32.6,90.6 32.4,90.2 32.2,89.7L24.7,93.2C25.6,95 26.6,96.7 27.6,98.4ZM34.5,94.1L28,99C29.1,100.6 30.3,102.2 31.7,103.8L36.8,97.7C36.5,97.2 36.1,96.8 35.8,96.3L30.9,101.1C30.6,101.4 30.1,100.9 30.4,100.6L35.4,95.7C35.1,95.2 34.8,94.6 34.5,94.1ZM24.6,92.6L32.1,89.1C31.9,88.6 31.7,88.1 31.6,87.6L25.5,89.4C25,89.5 24.8,88.8 25.3,88.7L31.4,86.9C31.2,86.2 31,85.6 30.9,84.9L22.8,86.6C23.1,88.7 23.8,90.6 24.6,92.6ZM22.5,86L30.6,84.3C30.5,83.7 30.4,83.1 30.3,82.6L23.8,83.2C23.3,83.2 23.3,82.5 23.7,82.5L30.2,81.9C30.1,81.3 30.1,80.6 30,80L21.7,79.8C21.8,81.8 22.1,83.9 22.5,86ZM21.7,79L30,79.2L30,77.5L23.6,76.8C23.1,76.7 23.2,76 23.7,76.1L30.1,76.8C30.1,76.1 30.2,75.4 30.3,74.7L22.2,73C21.9,75 21.7,77 21.7,79ZM22.3,72.3L30.4,74C30.5,73.4 30.6,72.9 30.7,72.4L24.5,70.4C24,70.3 24.3,69.6 24.7,69.7L30.8,71.6C30.9,71.1 31.1,70.5 31.2,70L23.7,66.3C23.2,68.2 22.6,70.2 22.3,72.3ZM24.1,65.6L31.5,69.3C31.7,68.8 31.9,68.2 32.1,67.7L26.4,64.2C26,64 26.4,63.3 26.8,63.6L32.4,67C32.6,66.4 32.9,65.9 33.2,65.3L26.5,60.2C25.6,62 24.8,63.8 24.1,65.6ZM26.8,59.7L33.5,64.8C33.7,64.4 34,63.9 34.3,63.5L29.4,58.8C29.1,58.5 29.6,58 29.9,58.3L34.7,62.9C35.1,62.3 35.4,61.8 35.8,61.3L30.2,54.8C29,56.3 27.8,57.9 26.8,59.7ZM30.6,54.2L36.2,60.7C36.6,60.3 36.9,59.8 37.3,59.4L33.1,53.7C32.8,53.3 33.4,52.9 33.7,53.3L37.8,58.9C38.2,58.5 38.6,58 39.1,57.6L34.7,50C33.2,51.2 31.9,52.6 30.6,54.2ZM35.2,49.4L39.6,57C40,56.7 40.4,56.3 40.8,56L37.9,49.3C37.7,48.9 38.4,48.6 38.6,49L41.4,55.5C41.9,55.1 42.4,54.7 43,54.4L40.1,45.7C38.4,46.9 36.7,48.1 35.2,49.4ZM40.7,45.4L43.6,54.1C44.1,53.8 44.5,53.5 45,53.3L43.3,46C43.2,45.5 43.9,45.4 44,45.8L45.7,52.8C46.2,52.5 46.7,52.3 47.2,52L45.9,42.6C44.1,43.5 42.4,44.4 40.7,45.4ZM46.6,42.4L47.9,51.8C48.4,51.6 49,51.4 49.6,51.2L49.3,43.4C49.3,42.9 50,42.9 50,43.4L50.2,51C50.7,50.8 51.3,50.7 51.9,50.5L52.6,40.7C50.5,41.1 48.5,41.7 46.6,42.4ZM53.3,40.6L52.6,50.4C53.2,50.3 53.9,50.1 54.5,50.1L55.7,42.4C55.8,41.9 56.5,42 56.4,42.5L55.3,50C55.8,49.9 56.3,49.9 56.8,49.9L59.3,40.1C57.3,40 55.3,40.2 53.3,40.6ZM60.1,40L57.6,49.8L59.5,49.8L61.9,42.1C62,41.6 62.7,41.9 62.6,42.3L60.2,49.8C60.8,49.9 61.4,49.9 62,50L66.1,40.4C64.1,40.1 62.1,40 60.1,40ZM66.8,40.6L62.7,50.2C63.2,50.3 63.8,50.4 64.3,50.6L68.3,42.8C68.5,42.4 69.2,42.7 68.9,43.1L64.9,50.7C65.6,50.9 66.3,51.1 67,51.4L72.6,42.1C70.7,41.4 68.8,40.9 66.8,40.6ZM53.9,62.1C53.9,62.2 53.9,62.2 53.8,62.3C53.8,62.4 53.7,62.4 53.6,62.4L53.5,62.4C52.9,62.5 52.3,62.5 51.7,62.4C51.6,62.5 51.6,62.5 51.5,62.6C51.6,63.3 51.9,64.1 52.7,64.9C53.2,64.9 53.8,64.9 54.3,65L55.9,58.5C54.1,58 53.7,54.9 56,54.5C56,54 56.2,53.5 56.5,53.2C55.3,53.3 54.1,53.4 52.9,53.7L53.2,57.4L53.2,57.9C53.2,58.4 52.5,58.4 52.5,58L52.5,57.7L51,56.7C50.6,57 50.4,57.5 50.4,58C50.4,59 51.2,59.8 52.2,59.8C52.4,59.8 52.5,59.8 52.7,59.7L52.7,59.6C52.7,59.1 53.4,59.1 53.4,59.5L53.4,60L53.9,62.1C53.9,62 53.9,62.1 53.9,62.1ZM51.3,55.5L51.5,55.6L51.6,55.6L52.8,56.4L52.5,53.5C51.6,53.7 50.7,54 49.8,54.3C47.9,56.3 48.2,58.5 49.3,59.9L49.4,60C50.3,61.1 51.8,61.7 53.2,61.5L53,60.2C52.8,60.2 52.6,60.3 52.4,60.3C51,60.3 49.9,59.2 49.9,57.8C49.9,57.1 50.2,56.5 50.7,56C50.6,55.7 50.9,55.3 51.3,55.5ZM50.9,62.1C50.1,61.8 49.4,61.3 48.9,60.8C46.4,61.4 44.2,59.6 43.4,58C42.5,58.7 41.7,59.4 41,60.1L42.5,60.5L42.6,60.5L43,60.6C43.1,60.6 43.1,60.6 43.2,60.7C43.3,60.7 43.3,60.8 43.3,60.8C45,62.9 49.3,62.9 50.9,62.1ZM48.4,60.1C47.4,58.7 47.2,56.9 48.4,55C46.8,55.7 45.3,56.6 44,57.6C44.6,58.9 46.4,60.4 48.4,60.1ZM42.7,61.3C42.4,62 42.4,63.5 42.6,64.3C44,64.7 45.6,64.8 47.4,64.8L51.8,64.8C51.3,64.2 51,63.5 50.9,62.9C48.8,63.7 44.6,63.4 42.7,61.3ZM43.9,72.4C43.4,72.2 43,71.9 42.6,71.6C42.1,72 41.6,72.4 41.1,72.7L41,72.7C40.1,73.5 39.3,74.2 38.7,74.9L38.6,75C38.3,75.3 38.1,75.6 37.9,76C37.9,76 37.9,76.1 37.8,76.1C37,77.4 36.6,78.5 36.4,79.6C36.1,81.1 36.3,83.1 35.4,84.4C36.8,84.3 37.2,83.9 38,83.1C37.4,79.3 40.1,74.4 43.9,72.4ZM44.4,79.3C44.3,79.4 44.2,79.6 44.1,79.7C43.3,81.3 44.2,82.6 45.1,82.6C47.4,82.6 47.2,79.5 44.4,79.3ZM40.3,72.5C39.1,71.5 37.7,70.5 37,69C36.9,69.8 36.9,70.6 37.1,71.3C37.4,72.5 38,73.5 38.5,74.2C39,73.7 39.6,73.1 40.3,72.5ZM37.7,86.9C37.8,87.9 37.9,88.9 37.7,89.9C38.8,89.8 39.3,89.5 39.9,88.9C39.1,88.3 38.4,87.7 37.7,86.9ZM37.3,73.6L36,74.3L36.7,75.8C37,75.7 37.2,75.6 37.5,75.5C37.7,75.3 37.9,75 38.1,74.7C37.8,74.4 37.6,74 37.3,73.6ZM33.4,80C33.4,80.3 33.4,80.6 33.5,80.9C34.2,80.4 35.3,79.7 35.9,79.5C36.1,78.6 36.4,77.7 36.9,76.7C36.8,76.7 36.8,76.8 36.7,76.8C35.1,77.6 33.7,79.4 33.4,80ZM33.5,75.4C33.4,76.5 33.3,77.6 33.3,78.7C33.6,78.2 34.1,77.7 34.6,77.2L33.5,75.4ZM33.9,73.1C33.8,73.5 33.7,74 33.7,74.4L35.2,76.9C35.5,76.7 35.7,76.5 36,76.3C34.8,73.7 34.5,74.3 37,73.1C36.8,72.7 36.7,72.3 36.5,71.9C35.9,72 34.8,72.4 33.9,73.1ZM37.9,63.9C36.2,66.4 34.9,69.2 34.2,72.1C35,71.6 35.8,71.3 36.4,71.1C36.2,70 36.2,68.9 36.7,67.6C36.9,67.2 37.3,67.2 37.4,67.7C37.7,69.5 39.5,70.9 40.9,72C41.2,71.7 41.6,71.4 42,71.2C39.9,69.7 38.3,67.5 37.9,63.9ZM40.4,60.7C40,61.1 39.6,61.5 39.3,62C40,63 40.9,63.6 41.9,64.1C41.8,63.2 41.8,62 42,61.2L40.4,60.7ZM60.5,58.4C60.2,58.6 59.8,58.7 59.3,58.7C59.2,59.7 59,60.8 59.2,61.8L61.1,59.8C60.7,59.3 60.5,58.8 60.5,58.4ZM58.3,60.5C57.8,60.4 57.2,60.2 57,59.6C56.9,59.4 57.7,59.5 57.8,59.5C58,59.5 58.2,59.5 58.4,59.4C58.4,59 58.5,58.6 58.6,58.2C58.6,58.1 58.6,57.9 58.7,57.8C58.8,57.3 59.5,57.4 59.4,57.9C61.5,57.7 61.1,54.7 58.9,55.2C58.4,55.3 58.3,54.6 58.8,54.5C59.3,54.4 59.7,54.4 60.1,54.5C59.9,51.5 55.2,53.3 57.9,55.6C58.3,55.9 57.8,56.5 57.4,56.1C56.9,55.7 56.6,55.3 56.5,54.9C54.9,55.2 55.3,57.2 56.4,57.5L56.4,57.4C56.5,56.9 57.2,57.1 57.1,57.6L57,58L55.2,65C55.5,65 55.8,65.1 56.1,65.1L58.6,62.4C58.4,61.8 58.3,61.2 58.3,60.5ZM61.9,63C61.5,62.5 61.4,61.7 61.5,61C61.6,60.7 61.9,61.2 62,61.3C62.2,61.5 62.5,61.6 62.8,61.8C63.4,60.9 64,60.1 64.6,59.2C65.3,58.3 66,57.3 66.8,56.4C65.6,54.9 63.5,55.8 64.1,58.1C64.2,58.6 63.5,58.7 63.4,58.3C63.3,57.8 63.2,57.3 63.3,56.9C61.7,56.4 60.6,57.8 61.6,59.2C61.9,58.9 62.4,59.4 62.1,59.7L59.3,62.7L59.2,62.8L57,65.2C58,65.4 59,65.6 60,66C60.5,65 61.2,64 61.9,63ZM58.7,83C62.7,81.4 63.9,78.2 63.7,75.7C62.8,77 61.9,78.3 61.1,79.6C60.3,80.7 59.5,81.8 58.7,83ZM66.6,73.9C68.3,72.2 68.8,70.3 68.8,68.6C67.9,69.8 67,71 66.1,72.2C66.3,72.8 66.5,73.3 66.6,73.9ZM71.8,67.5C73.6,66 74.3,64.5 74.3,62.6C73.3,63.5 72.4,64.4 71.5,65.4C71.6,66.2 71.7,66.9 71.8,67.5ZM71.7,70.4C75.4,68.7 76.9,64.7 76.6,60.6C76,61 75.4,61.5 74.9,62C75.1,64.5 74.2,66.5 71.8,68.3C71.8,69.1 71.8,69.8 71.7,70.4ZM57.3,85.8C61.5,85.4 65.2,82.1 66,77.6L66,77.5C66.1,76.6 66.2,75.7 66.1,74.7L66.1,74.6C66,74 65.9,73.5 65.7,72.9C65.3,73.5 64.8,74.1 64.4,74.8C65,78 63.6,82.4 58.1,84C57.7,84.6 57.2,85.2 56.7,85.8L57.3,85.8ZM41.9,98.5C42,98.7 42.1,98.8 42.1,98.9C43.5,98.1 44.8,97.2 46.1,96.1L46.2,96.1C46.8,95.6 47.4,95.1 48,94.6L48.1,94.5C48.7,94 49.2,93.4 49.8,92.9C49.8,92.9 49.8,92.8 49.9,92.8C50.6,92.1 51.4,91.3 52.1,90.5L52.2,90.4C52.8,89.7 53.5,88.9 54.1,88.2C54.1,88.1 54.2,88.1 54.2,88.1C54.7,87.4 55.3,86.7 55.8,86C55.8,85.9 55.8,86 55.9,85.9C56.5,85.1 57.1,84.3 57.6,83.5C57.6,83.5 57.6,83.4 57.7,83.4C59.8,80.5 61.8,77.5 63.8,74.5C63.8,74.5 63.8,74.4 63.9,74.4C64.5,73.6 65,72.7 65.6,71.9C65.6,71.9 65.6,71.8 65.7,71.8C66.7,70.4 67.7,69.1 68.7,67.8C68.8,67.7 68.9,67.6 69,67.4C69,67.4 69,67.3 69.1,67.3C69.7,66.6 70.3,65.8 70.9,65.1C70.9,65.1 70.9,65 71,65C72.1,63.8 73.3,62.6 74.4,61.5L74.5,61.4C75.3,60.7 76,60.1 76.8,59.6L77,59.4L77.1,59.4C77.2,59.3 77.3,59.2 77.4,59.2L76.7,57.2C76.3,57.5 75.9,57.8 75.6,58.1L75.5,58.2C61.9,69.5 56.2,87.6 41.3,97.5C41.5,97.8 41.7,98.1 41.9,98.5ZM54.7,99.8C54.7,99.8 54.8,99.8 54.7,99.8C55.1,99.9 55.4,99.9 55.7,99.9C56.6,99.9 57.4,99.6 58.1,99.1C58.9,98.4 59.4,97.4 59.4,96.3C59.4,95.7 59.3,95.2 59.1,94.8L59.1,94.7C58.5,93.5 57.2,92.6 55.8,92.6L55.2,92.6C54.5,92.7 53.9,93 53.4,93.4L53.3,93.4C52.5,94.1 52,95.1 52,96.2C52,97.9 53.1,99.4 54.7,99.8ZM45.1,113.3C46.2,112.9 47.2,112.4 48,111.9L48.1,111.8C48.9,111.3 49.6,110.7 50.3,110.1C50.3,110.1 50.3,110 50.4,110C53.6,106.8 54.5,102.7 54.4,100.4C53.7,100.2 53,99.7 52.5,99.2C52.9,103.3 51.6,108.3 45.5,111.3C45.4,111.4 45.4,111.4 45.3,111.4L45.1,111.4C44.1,111.1 43,110.5 42.1,109.9C42,109.8 42,109.8 41.9,109.7C41.1,109.1 40.4,108.3 39.9,107.5C39.8,107.4 39.8,107.4 39.8,107.3C38.6,105.2 38.8,102.8 42.2,100.8C42,100.3 41.8,99.8 41.6,99.3C34.6,103.9 37.3,109.7 45.1,113.3ZM48.3,112.5C47.6,112.9 46.8,113.3 46,113.7C50.1,115.4 55.4,116.5 61,116.4C57.7,115.1 51.5,113.2 48.3,112.5ZM50.7,110.7C50.2,111.1 49.7,111.6 49.2,111.9C53.2,112.8 60.3,115.1 62.8,116.2C64.3,116.1 65.9,115.9 67.4,115.7C63.1,114.4 54.5,111.7 50.7,110.7ZM55,100.6C55,103 54.2,107 51.2,110.2C55.6,111.3 65.2,114.3 68.7,115.6C69.2,115.5 69.7,115.4 70.1,115.3C69.5,112.5 69.5,108.4 70.9,103.9C66.9,103.6 62.4,102.4 58.2,99.8C57.5,100.3 56.6,100.7 55.6,100.7C55.5,100.6 55.2,100.6 55,100.6ZM55,90.9C55.1,91.2 55.2,91.5 55.3,91.8L55.7,91.8C56.4,91.8 57.1,92 57.7,92.3C58.1,90.3 56.2,89.5 55,90.9ZM57.6,87.3C60.8,88.1 61.9,92.1 59.9,94.5C60.1,95 60.2,95.6 60.2,96.2C60.2,97.4 59.7,98.5 59,99.3C65.2,103.1 72.2,103.8 76.8,102.8C81.6,101.8 83.3,99.2 80.3,96.4C79.8,95.9 81.2,94.6 82.3,94.5C82.4,93.8 82.1,93.3 81.6,93C80.1,92.9 77.7,93.6 76.1,94C76,94.3 75.5,94.4 75.4,94C75.2,93.5 75.7,92.7 75.8,92.5C76,92 76.6,92.3 76.4,92.8C76.3,92.9 76.2,93.1 76.2,93.3C77.8,92.9 80,92.2 81.6,92.3C82,92 83,91.3 82.8,90.7C82.7,90.6 82.6,90.4 82.4,90.1C81.6,89.1 82,88.4 82.7,87.6C81.5,87.4 79.9,87.6 79.1,88.5C78.6,89 77.8,87.6 77.7,87.4C77.4,86.6 77.4,85.6 78.6,84.5C78.9,84.2 79.4,84.7 79.1,85C78.2,85.9 77.9,86.8 78.8,87.7C80.1,86.7 81.9,86.5 83.4,86.9C86.1,86.7 85.9,85.6 85.2,83.7C84.9,82.9 84.5,82 84.2,81C83.6,79.5 82.5,76.4 81.4,73C78.3,71.8 73.9,72.5 70.6,74C69.8,75.3 68.6,76.5 66.9,77.7C66.1,82.3 62.3,85.8 57.9,86.3L57.6,87.3ZM56.8,87.2L56.9,86.5L56.1,86.5C55.6,87.2 55.1,87.8 54.6,88.4C54.6,89 54.7,89.5 54.8,90C56.3,88.7 59.2,89.6 58.3,92.6C58.8,92.9 59.2,93.4 59.5,93.8C61.1,91.6 59.7,88 56.6,87.9C56.1,87.9 56.1,87.2 56.6,87.2L56.8,87.2ZM69.2,61.6C69.2,62 68.9,62.3 68.5,62.3C68.1,62.3 67.8,62 67.8,61.6C67.8,61.2 68.1,60.9 68.5,60.9C68.9,61 69.2,61.3 69.2,61.6ZM71.1,59.4C71.1,59.8 70.8,60.1 70.4,60.1C70,60.1 69.7,59.8 69.7,59.4C69.7,59 70,58.7 70.4,58.7C70.8,58.7 71.1,59 71.1,59.4ZM67.4,64C67.4,64.3 67.1,64.6 66.8,64.6C66.5,64.6 66.2,64.3 66.2,64C66.2,63.7 66.5,63.4 66.8,63.4C67.1,63.4 67.4,63.7 67.4,64ZM47,57.6C47,58 46.7,58.3 46.3,58.3C45.9,58.3 45.6,58 45.6,57.6C45.6,57.2 45.9,56.9 46.3,56.9C46.7,56.9 47,57.2 47,57.6ZM55.7,97.5C56.4,97.5 57,96.9 57,96.2C57,95.5 56.4,94.9 55.7,94.9C55,94.9 54.4,95.5 54.4,96.2C54.4,96.9 55,97.5 55.7,97.5ZM55.7,98.2C54.6,98.2 53.7,97.3 53.7,96.2C53.7,95.1 54.6,94.2 55.7,94.2C56.8,94.2 57.7,95.1 57.7,96.2C57.7,97.3 56.8,98.2 55.7,98.2ZM83.2,87.1L83.2,87.1ZM72.7,79.1C72.5,78.5 72.4,77.8 72.5,77C71.4,77.3 70.4,77.8 69.5,78.5C69.8,78.6 70.3,78.7 70.9,78.9C71.4,79 72,79.1 72.7,79.1ZM73.2,76.8C73.1,77.8 73.2,78.5 73.4,79.1C73.9,79.1 74.3,79.1 74.8,79C74.6,78.7 74.4,78.2 74.4,77.8C74.4,77.3 74.4,76.9 74.6,76.5C74.2,76.6 73.7,76.7 73.2,76.8ZM76.2,75.7C76.7,75.7 77.2,75.6 77.5,75.7C77.7,75.7 77.8,75.9 77.8,76.1C77.8,76.5 77.2,76.8 76.8,76.9C76.9,77.1 76.9,77.3 76.9,77.6C77,78.6 76.6,79.5 75.9,79.7L75.8,79.7C75,79.8 74.1,79.9 73.1,79.9L72.9,79.9C71.4,79.9 69.9,79.6 68.7,79.1C68.4,79.5 67.8,79 68.2,78.6C68.2,78.6 68.4,78.4 68.5,78.3C69.4,77.6 71.8,75.8 76.2,75.7Z" style="fill:none;fill-rule:nonzero;"/>
        <path id="path34" d="M101.7,48.7L101.7,50L105.7,50L105.7,62.4L107.2,62.4L107.2,50L111.2,50L111.2,48.7L101.7,48.7ZM114.3,48.7L114.3,62.4L121.7,62.4L121.7,61.1L115.8,61.1L115.8,56L121.2,56L121.2,54.7L115.8,54.7L115.8,50L121.7,50L121.7,48.7L114.3,48.7ZM131.9,49.6C133.2,49.6 134.4,49.9 135.4,50.6L136,49.5C134.7,48.8 133.4,48.5 131.9,48.5C127.9,48.5 124.7,51.4 124.7,55.6C124.7,60.1 127.9,62.7 131.9,62.7C133.3,62.7 134.8,62.2 136,61.5L135.5,60.5C134.4,61.1 133.2,61.5 132,61.5C128.7,61.5 126.3,58.9 126.3,55.6C126.2,52.2 128.5,49.6 131.9,49.6ZM139.5,48.7L139.5,62.4L141,62.4L141,55.8L148.5,55.8L148.5,62.4L150,62.4L150,48.7L148.5,48.7L148.5,54.6L141,54.6L141,48.7L139.5,48.7ZM156.5,48.4L154.9,48.8L154.9,62.4L156.4,62.4L156.4,50.6L164.4,62.7L166,62.3L166,48.7L164.6,48.7L164.6,60.4L156.5,48.4ZM171.5,48.7L171.5,62.4L173,62.4L173,48.7L171.5,48.7ZM180.9,61.6C179.8,61.6 178.7,61.1 178,60.6L177.4,61.6C178.5,62.3 179.6,62.6 181,62.6C184,62.6 185.4,60.7 185.4,58.7C185.4,56.6 183.9,55.7 182.4,55L181.2,54.4C180.2,53.9 179.1,53.2 179.1,52C179.1,50.2 180.6,49.4 181.8,49.4C183.1,49.4 183.9,49.8 184.7,50.4L185.2,49.4C184.1,48.8 183,48.4 181.7,48.4C179.3,48.4 177.6,49.9 177.6,51.9C177.6,54.8 179.7,55.3 181.7,56.3C182.8,56.8 183.7,57.5 183.7,58.9C183.8,60.5 182.5,61.6 180.9,61.6ZM195.9,49.6C197.2,49.6 198.4,49.9 199.4,50.6L200,49.5C198.7,48.8 197.4,48.5 195.9,48.5C191.9,48.5 188.7,51.4 188.7,55.6C188.7,60.1 191.9,62.7 195.9,62.7C197.3,62.7 198.8,62.2 200,61.5L199.5,60.5C198.4,61.1 197.2,61.5 196,61.5C192.7,61.5 190.3,58.9 190.3,55.6C190.2,52.2 192.6,49.6 195.9,49.6ZM203.9,48.7L203.9,62.4L205.4,62.4L205.4,55.8L212.9,55.8L212.9,62.4L214.4,62.4L214.4,48.7L212.9,48.7L212.9,54.6L205.4,54.6L205.4,48.7L203.9,48.7ZM219.3,48.7L219.3,62.4L226.8,62.4L226.8,61.1L220.9,61.1L220.9,56L226.3,56L226.3,54.7L220.9,54.7L220.9,50L226.8,50L226.8,48.7L219.3,48.7ZM113.9,80.3L113.9,71.3L112.4,71.3L112.4,80.1C112.4,83.2 110.9,84.1 108.6,84.1C106,84.1 104.9,82.7 104.9,80.1L104.9,71.3L103.3,71.3L103.3,80.4C103.3,83.5 105.1,85.2 108.5,85.2C111.1,85.3 113.9,84.5 113.9,80.3ZM119.8,71.1L118.2,71.5L118.2,85.1L119.7,85.1L119.7,73.3L127.7,85.4L129.3,85L129.3,71.4L127.9,71.4L127.9,83.1L119.8,71.1ZM134.2,71.4L134.2,85.1L135.7,85.1L135.7,71.4L134.2,71.4ZM140.1,71.2L138.6,71.7L143.8,85.1L145.3,85.1L150.6,71.7L149.1,71.2L144.6,83.5L140.1,71.2ZM153.6,71.3L153.6,85.1L161,85.1L161,83.8L155.1,83.8L155.1,78.6L160.4,78.6L160.4,77.3L155.1,77.3L155.1,72.6L161,72.6L161,71.3L153.6,71.3ZM168,78L166.2,78L166.2,72.5L168.4,72.5C170.8,72.5 171.5,73.7 171.5,75.2C171.5,77.5 169.8,78 168,78ZM168.8,71.4L164.7,71.4L164.7,85.1L166.2,85.1L166.2,79.2L167.5,79.2C168.5,79.2 169,79.6 169.6,80.3L170.2,81.1L173.4,85.5L174.7,84.7L172,81C171.5,80.3 170.7,79.1 169.9,78.8L169.9,78.5C171.8,78.2 172.9,77.2 172.9,74.9C172.9,72.8 171.4,71.4 168.8,71.4ZM180.2,84.3C179.1,84.3 178,83.8 177.3,83.3L176.7,84.3C177.8,85 178.9,85.3 180.3,85.3C183.3,85.3 184.7,83.4 184.7,81.4C184.7,79.3 183.2,78.4 181.7,77.7L180.5,77.1C179.5,76.6 178.4,75.9 178.4,74.7C178.4,72.9 179.9,72.1 181.1,72.1C182.4,72.1 183.2,72.6 184,73.1L184.5,72.1C183.4,71.5 182.3,71.1 181,71.1C178.6,71.1 176.9,72.6 176.9,74.6C176.9,77.5 179,78 181,79C182.1,79.5 183,80.2 183,81.6C183.1,83.3 181.9,84.3 180.2,84.3ZM188.8,71.4L188.8,85.1L190.3,85.1L190.3,71.4L188.8,71.4ZM193.3,71.3L193.3,72.7L197.3,72.7L197.3,85.1L198.8,85.1L198.8,72.6L202.8,72.6L202.8,71.3L193.3,71.3ZM209.8,72.7L212.3,79.5L207.2,79.5L209.8,72.7ZM216,84.9L210.6,71.4L209,71.4L203.4,84.9L204.9,85.4L206.7,80.6L212.7,80.6L214.5,85.4L216,84.9ZM213.7,70.5L212.3,70.5L212.3,72.3L213.7,72.3L213.7,70.5ZM207.3,72.3L207.3,70.5L205.9,70.5L205.9,72.3L207.3,72.3ZM217.4,71.4L217.4,72.7L221.4,72.7L221.4,85.1L222.9,85.1L222.9,72.7L226.9,72.7L226.9,71.4L217.4,71.4ZM106.8,106.5L104.8,106.5L104.8,95.2L107.1,95.2C110.9,95.2 113.4,97.1 113.4,100.8C113.5,104.4 110.9,106.5 106.8,106.5ZM107.5,94L103.3,94L103.3,107.7L107,107.7C111.7,107.7 114.9,105.3 114.9,100.7C114.9,97.3 113,94 107.5,94ZM123.4,95.4L125.9,102.2L120.8,102.2L123.4,95.4ZM129.6,107.5L124.2,94L122.6,94L117,107.5L118.5,108L120.3,103.2L126.3,103.2L128.1,108L129.6,107.5ZM136.6,100.7L134.8,100.7L134.8,95.2L137,95.2C139.4,95.2 140.1,96.4 140.1,97.9C140.1,100.1 138.4,100.7 136.6,100.7ZM137.4,94L133.3,94L133.3,107.7L134.8,107.7L134.8,101.8L136.1,101.8C137.1,101.8 137.6,102.2 138.2,102.9L138.8,103.7L142,108.1L143.3,107.3L140.6,103.7C140.1,103 139.3,101.8 138.5,101.6L138.5,101.3C140.4,101 141.5,100 141.5,97.7C141.5,95.5 140,94 137.4,94ZM151.8,94L150.1,94L146.3,107.5L147.8,107.9L151,96L154.5,107.6L156.2,107.6L159.7,95.9L162.9,107.8L164.4,107.4L160.5,94L158.8,94L155.3,105.9L151.8,94ZM170.9,106.9C169.8,106.9 168.7,106.4 168,105.9L167.4,106.9C168.5,107.6 169.6,107.9 171,107.9C174,107.9 175.4,106 175.4,104C175.4,101.9 173.9,101 172.4,100.3L171.2,99.7C170.2,99.2 169.1,98.5 169.1,97.3C169.1,95.5 170.6,94.7 171.8,94.7C173.1,94.7 173.9,95.1 174.7,95.7L175.2,94.7C174.1,94.1 173,93.7 171.7,93.7C169.3,93.7 167.6,95.2 167.6,97.2C167.6,100.1 169.7,100.6 171.7,101.6C172.8,102.1 173.7,102.8 173.7,104.2C173.8,105.9 172.6,106.9 170.9,106.9ZM177.9,94L177.9,95.3L181.9,95.3L181.9,107.7L183.4,107.7L183.4,95.3L187.4,95.3L187.4,94L177.9,94ZM194.6,95.4L197.1,102.2L192,102.2L194.6,95.4ZM200.8,107.6L195.4,94L193.8,94L188.2,107.5L189.7,108L191.5,103.2L197.5,103.2L199.3,108L200.8,107.6ZM207.5,106.5L205.5,106.5L205.5,95.2L207.8,95.2C211.6,95.2 214.1,97.1 214.1,100.8C214.1,104.4 211.5,106.5 207.5,106.5ZM208.1,94L203.9,94L203.9,107.7L207.6,107.7C212.3,107.7 215.5,105.3 215.5,100.7C215.5,97.3 213.6,94 208.1,94ZM217.4,94L217.4,95.3L221.4,95.3L221.4,107.7L222.9,107.7L222.9,95.3L226.9,95.3L226.9,94L217.4,94Z" style="fill:rgb(29,29,27);fill-rule:nonzero;"/>
    </g>
</svg>
